<?xml version="1.0" encoding="UTF-8"?>
<svg width="137px" height="137px" viewBox="0 0 137 137" version="1.1" xmlns="http://www.w3.org/2000/svg" xmlns:xlink="http://www.w3.org/1999/xlink">
    <title>pencil</title>
    <g id="Page-1" stroke="none" stroke-width="1" fill="none" fill-rule="evenodd">
        <g id="pencil" fill="#FF9528" fill-rule="nonzero">
            <path d="M132.168492,22.7565909 L114.354932,4.9856001 C110.685786,0.403143345 99.4542805,-3.45282637 90.9956402,4.9856001 L9.51820837,85.988906 L9.51820837,85.988906 C8.28582366,87.2183456 7.6976401,88.8110286 7.78166632,90.3478278 L0.191297096,129.969314 C-0.985070092,134.495887 3.52433746,137.401835 6.60529913,136.954766 L47.7781507,128.795758 C48.9545178,128.795758 49.8227889,128.20898 50.6910599,127.342784 L132.168492,46.3674199 C138.610503,39.9408037 138.610503,29.1832071 132.168492,22.7565909 Z M99.1741928,12.8651904 C100.938744,10.8254383 104.439837,10.8254383 106.484475,12.8651904 L111.329988,17.615298 L30.1886604,98.5627201 L21.7580288,90.0684098 L99.1741928,12.8651904 Z M17.1365863,101.720145 L35.1742165,119.71467 L12.7392138,124.129476 L17.1365863,101.720145 Z M124.298035,37.9010517 L46.7698359,115.24398 L38.3392044,106.74967 L119.564558,25.7184227 L124.270027,30.3288213 C126.846831,33.0671186 125.642455,36.531903 124.298035,37.9010517 Z" id="Shape"></path>
        </g>
    </g>
</svg>