<?xml version="1.0" encoding="UTF-8"?>
<svg width="17px" height="17px" viewBox="0 0 17 17" version="1.1" xmlns="http://www.w3.org/2000/svg" xmlns:xlink="http://www.w3.org/1999/xlink">
    <title>paperclip</title>
    <g id="Page-1" stroke="none" stroke-width="1" fill="none" fill-rule="evenodd">
        <g id="paperclip" transform="translate(8.500000, 8.500000) rotate(45.000000) translate(-8.500000, -8.500000) translate(5.000000, 1.000000)" fill="#9A9797" fill-rule="nonzero">
            <path d="M0,2.5 C0,1.11928813 1.11928813,4.4408921e-16 2.5,4.4408921e-16 C3.88071187,4.4408921e-16 5,1.11928813 5,2.5 L5,11.5 C5,12.3284271 4.32842712,13 3.5,13 C2.67157288,13 2,12.3284271 2,11.5 L2,4.5 C2,4.22385763 2.22385763,4 2.5,4 C2.77614237,4 3,4.22385763 3,4.5 L3,11.5 C3,11.7761424 3.22385763,12 3.5,12 C3.77614237,12 4,11.7761424 4,11.5 L4,2.5 C4,1.96410161 3.71410163,1.46891107 3.25000001,1.20096187 C2.78589839,0.933012669 2.21410161,0.933012669 1.74999999,1.20096187 C1.28589837,1.46891107 1,1.96410161 1,2.5 L1,11.5 C1,12.8807119 2.11928813,14 3.5,14 C4.88071187,14 6,12.8807119 6,11.5 L6,4.5 C6,4.22385763 6.22385763,4 6.5,4 C6.77614237,4 7,4.22385763 7,4.5 L7,11.5 C7,13.4329966 5.43299662,15 3.5,15 C1.56700338,15 0,13.4329966 0,11.5 L0,2.5 Z" id="Path"></path>
        </g>
    </g>
</svg>